<?xml version="1.0" encoding="UTF-8" standalone="no"?><svg xmlns="http://www.w3.org/2000/svg" xmlns:xlink="http://www.w3.org/1999/xlink" contentStyleType="text/css" height="670px" preserveAspectRatio="none" style="width:1090px;height:670px;background:#00000000;" version="1.1" viewBox="0 0 1090 670" width="1090px" zoomAndPan="magnify"><defs/><g><!--MD5=[0c66e72a6fdf26ca31f48edd7abc94ce]
cluster Apple Web Server--><g id="cluster_Apple Web Server"><polygon fill="#AFEEEE" points="817,16,827,6,1073,6,1073,459,1063,469,817,469,817,16" style="stroke:#181818;stroke-width:1.0;"/><line style="stroke:#181818;stroke-width:1.0;" x1="1063" x2="1073" y1="16" y2="6"/><line style="stroke:#181818;stroke-width:1.0;" x1="817" x2="1063" y1="16" y2="16"/><line style="stroke:#181818;stroke-width:1.0;" x1="1063" x2="1063" y1="16" y2="469"/><text fill="#000000" font-family="sans-serif" font-size="14" font-style="italic" lengthAdjust="spacing" textLength="56" x="913" y="33.5332">«device»</text><text fill="#000000" font-family="sans-serif" font-size="14" font-weight="bold" lengthAdjust="spacing" textLength="127" x="877.5" y="51.1426">Apple Web Server</text></g><!--MD5=[26052e9c019f88957908c6792eb0578c]
cluster iTW--><g id="cluster_iTW"><polygon fill="#FFA07A" points="849,91,859,81,1041,81,1041,239,1031,249,849,249,849,91" style="stroke:#181818;stroke-width:1.0;"/><line style="stroke:#181818;stroke-width:1.0;" x1="1031" x2="1041" y1="91" y2="81"/><line style="stroke:#181818;stroke-width:1.0;" x1="849" x2="1031" y1="91" y2="91"/><line style="stroke:#181818;stroke-width:1.0;" x1="1031" x2="1031" y1="91" y2="249"/><text fill="#000000" font-family="sans-serif" font-size="14" font-style="italic" lengthAdjust="spacing" textLength="63" x="909.5" y="108.5332">«website»</text><text fill="#000000" font-family="sans-serif" font-size="14" font-weight="bold" lengthAdjust="spacing" textLength="47" x="917.5" y="126.1426">iTunes</text></g><!--MD5=[150c6e6063e4bcd3089a67876cebe34d]
cluster iTS--><g id="cluster_iTS"><polygon fill="#FFA07A" points="863,299,873,289,1028,289,1028,427,1018,437,863,437,863,299" style="stroke:#181818;stroke-width:1.0;"/><line style="stroke:#181818;stroke-width:1.0;" x1="1018" x2="1028" y1="299" y2="289"/><line style="stroke:#181818;stroke-width:1.0;" x1="863" x2="1018" y1="299" y2="299"/><line style="stroke:#181818;stroke-width:1.0;" x1="1018" x2="1018" y1="299" y2="437"/><text fill="#000000" font-family="sans-serif" font-size="14" font-style="italic" lengthAdjust="spacing" textLength="63" x="910" y="316.5332">«website»</text><text fill="#000000" font-family="sans-serif" font-size="14" font-weight="bold" lengthAdjust="spacing" textLength="89" x="897" y="334.1426">iTunes Store</text></g><!--MD5=[3bb3c26011a900458e6e129ce4506cc0]
cluster HC--><g id="cluster_HC"><polygon fill="#FFA07A" points="195,168,205,158,384,158,384,470,374,480,195,480,195,168" style="stroke:#181818;stroke-width:1.0;"/><line style="stroke:#181818;stroke-width:1.0;" x1="374" x2="384" y1="168" y2="158"/><line style="stroke:#181818;stroke-width:1.0;" x1="195" x2="374" y1="168" y2="168"/><line style="stroke:#181818;stroke-width:1.0;" x1="374" x2="374" y1="168" y2="480"/><text fill="#000000" font-family="sans-serif" font-size="14" font-style="italic" lengthAdjust="spacing" textLength="56" x="257.5" y="185.5332">«device»</text><text fill="#000000" font-family="sans-serif" font-size="14" font-weight="bold" lengthAdjust="spacing" textLength="113" x="229" y="203.1426">Home Computer</text></g><!--MD5=[5811b25a55944475dd63195b77327fcf]
cluster MD--><g id="cluster_MD"><polygon fill="#FFA07A" points="461,414,471,404,650,404,650,643,640,653,461,653,461,414" style="stroke:#181818;stroke-width:1.0;"/><line style="stroke:#181818;stroke-width:1.0;" x1="640" x2="650" y1="414" y2="404"/><line style="stroke:#181818;stroke-width:1.0;" x1="461" x2="640" y1="414" y2="414"/><line style="stroke:#181818;stroke-width:1.0;" x1="640" x2="640" y1="414" y2="653"/><text fill="#000000" font-family="sans-serif" font-size="14" font-style="italic" lengthAdjust="spacing" textLength="101" x="501" y="431.5332">«mobile device»</text><text fill="#000000" font-family="sans-serif" font-size="14" font-weight="bold" lengthAdjust="spacing" textLength="113" x="495" y="449.1426">iPhone/iPad/etc.</text></g><!--MD5=[168a53d818c6a1178540cd923bd9aef1]
entity iTuneseSetup.exe--><g id="elem_iTuneseSetup.exe"><rect fill="#F1F1F1" height="58.2188" rx="2.5" ry="2.5" style="stroke:#181818;stroke-width:0.5;" width="144" x="873" y="148"/><polygon fill="#F1F1F1" points="1000,153,1000,167,1012,167,1012,159,1006,153,1000,153" style="stroke:#181818;stroke-width:0.5;"/><line style="stroke:#181818;stroke-width:0.5;" x1="1006" x2="1006" y1="153" y2="159"/><line style="stroke:#181818;stroke-width:0.5;" x1="1012" x2="1006" y1="159" y2="159"/><text fill="#000000" font-family="sans-serif" font-size="14" font-style="italic" lengthAdjust="spacing" textLength="84" x="898" y="175.5332">«application»</text><text fill="#000000" font-family="sans-serif" font-size="14" lengthAdjust="spacing" textLength="114" x="883" y="193.1426">iTuneseSetup.exe</text></g><!--MD5=[179788470a8aff7c66bc088ac16c3958]
entity Media Library--><g id="elem_Media Library"><rect fill="#F1F1F1" height="37.6094" rx="2.5" ry="2.5" style="stroke:#181818;stroke-width:0.5;" width="106" x="892" y="356"/><text fill="#000000" font-family="sans-serif" font-size="14" lengthAdjust="spacing" textLength="86" x="902" y="380.5332">Media Library</text></g><!--MD5=[cc6593c7725ff0aed46a7b076a6ae0ec]
entity wb--><g id="elem_wb"><polygon fill="#FFA07A" points="222,235,232,225,357,225,357,262.6094,347,272.6094,222,272.6094,222,235" style="stroke:#181818;stroke-width:0.5;"/><line style="stroke:#181818;stroke-width:0.5;" x1="347" x2="357" y1="235" y2="225"/><line style="stroke:#181818;stroke-width:0.5;" x1="222" x2="347" y1="235" y2="235"/><line style="stroke:#181818;stroke-width:0.5;" x1="347" x2="347" y1="235" y2="272.6094"/><text fill="#000000" font-family="sans-serif" font-size="14" font-style="italic" lengthAdjust="spacing" textLength="95" x="237" y="259.5332">«web browser»</text></g><!--MD5=[686e85796b441ac30743a46b3a198feb]
entity iT--><g id="elem_iT"><rect fill="#FF0000" height="55.2188" rx="2.5" ry="2.5" style="stroke:#181818;stroke-width:0.5;" width="104" x="237.5" y="308.5"/><text fill="#000000" font-family="sans-serif" font-size="14" font-style="italic" lengthAdjust="spacing" textLength="84" x="247.5" y="333.0332">«application»</text><text fill="#000000" font-family="sans-serif" font-size="14" lengthAdjust="spacing" textLength="43" x="268" y="350.6426">iTunes</text></g><!--MD5=[8e94227e8949fb09569a9347976a54a0]
entity ML1--><g id="elem_ML1"><rect fill="#32CD32" height="37.6094" rx="2.5" ry="2.5" style="stroke:#181818;stroke-width:0.5;" width="106" x="236.5" y="399"/><text fill="#000000" font-family="sans-serif" font-size="14" lengthAdjust="spacing" textLength="86" x="246.5" y="423.5332">Media Library</text></g><!--MD5=[cd867fbea90289f1d940f296e4758e7e]
entity MDOS--><g id="elem_MDOS"><polygon fill="#FFA07A" points="517,500.5,527,490.5,593,490.5,593,545.7188,583,555.7188,517,555.7188,517,500.5" style="stroke:#181818;stroke-width:0.5;"/><line style="stroke:#181818;stroke-width:0.5;" x1="583" x2="593" y1="500.5" y2="490.5"/><line style="stroke:#181818;stroke-width:0.5;" x1="517" x2="583" y1="500.5" y2="500.5"/><line style="stroke:#181818;stroke-width:0.5;" x1="583" x2="583" y1="500.5" y2="555.7188"/><text fill="#000000" font-family="sans-serif" font-size="14" font-style="italic" lengthAdjust="spacing" textLength="36" x="532" y="525.0332">«OS»</text><text fill="#000000" font-family="sans-serif" font-size="14" lengthAdjust="spacing" textLength="23" x="538.5" y="542.6426">iOS</text></g><!--MD5=[6c7eef7b00c1b270a46fece4fa1edf4a]
entity ML2--><g id="elem_ML2"><rect fill="#32CD32" height="37.6094" rx="2.5" ry="2.5" style="stroke:#181818;stroke-width:0.5;" width="106" x="502" y="591"/><text fill="#000000" font-family="sans-serif" font-size="14" lengthAdjust="spacing" textLength="86" x="512" y="615.5332">Media Library</text></g><g id="elem_N1"><path d="M6,506.5 L6,581.9063 L140,581.9063 L140,516.5 L130,506.5 L6,506.5 " fill="#FEFFDD" style="stroke:#181818;stroke-width:0.5;"/><path d="M130,506.5 L130,516.5 L140,516.5 L130,506.5 " fill="#FEFFDD" style="stroke:#181818;stroke-width:1.0;"/><text fill="#000000" font-family="sans-serif" font-size="13" lengthAdjust="spacing" textLength="106" x="12" y="524.9951">Media libraries are</text><text fill="#000000" font-family="sans-serif" font-size="13" lengthAdjust="spacing" textLength="77" x="12" y="541.3467">synchronized</text><text fill="#000000" font-family="sans-serif" font-size="13" lengthAdjust="spacing" textLength="113" x="12" y="557.6982">between devices by</text><text fill="#000000" font-family="sans-serif" font-size="13" lengthAdjust="spacing" textLength="38" x="12" y="574.0498">iTunes</text></g><!--MD5=[0e4de8fb3a36651fdce8ff388019daed]
link N1 to ML1--><g id="link_N1_ML1"><path d="M102.9,506.36 C122.09,484 149.17,456.97 179,441 C196.47,431.65 217.4,426.1 236.26,422.81 " fill="none" id="N1-ML1" style="stroke:#181818;stroke-width:1.0;stroke-dasharray:7.0,7.0;"/></g><!--MD5=[d181fc5edc414a57f8bdcaaf81538a52]
link N1 to ML2--><g id="link_N1_ML2"><path d="M140.24,553.11 C236.68,566.37 413.81,590.72 501.7,602.81 " fill="none" id="N1-ML2" style="stroke:#181818;stroke-width:1.0;stroke-dasharray:7.0,7.0;"/></g><!--MD5=[057bf042cab822e62a1d1d5450331ca8]
link HC to MD--><g id="link_HC_MD"><path d="M384.7317,465.9219 C385.2197,465.8904 385.7083,465.8589 386.1977,465.8273 C390.1127,465.5747 394.0738,465.3191 398.0655,465.0615 C406.049,464.5463 414.1552,464.0231 422.2613,463.5 C430.3673,462.9769 438.4734,462.4538 446.4566,461.9385 C450.4482,461.6809 454.4091,461.4253 458.324,461.1727 C458.8134,461.1411 459.302,461.1096 459.7899,461.0781 C460.0338,461.0623 460.2776,461.0466 460.5212,461.0309 " fill="none" id="HC-MD" style="stroke:#181818;stroke-width:1.0;"/><text fill="#000000" font-family="sans-serif" font-size="13" lengthAdjust="spacing" textLength="27" x="409" y="459.4951">USB</text></g><!--MD5=[e8cf868d6ce6b08077fe18f25b2a5b73]
link iT to iTS--><g id="link_iT_iTS"><path d="M341.64,343.33 C434.65,356.66 637.72,385.72 809,410 C823.7625,412.0925 839.435,414.3056 854.6756,416.4533 C856.5807,416.7217 858.479,416.9892 860.368,417.2552 C860.8402,417.3217 861.3119,417.3882 861.7829,417.4545 C862.0184,417.4877 862.2538,417.5208 862.489,417.5539 " fill="none" id="iT-iTS" style="stroke:#181818;stroke-width:1.0;"/><text fill="#000000" font-family="sans-serif" font-size="13" lengthAdjust="spacing" textLength="60" x="525" y="339.4951">«protocol»</text><text fill="#000000" font-family="sans-serif" font-size="13" lengthAdjust="spacing" textLength="125" x="492.5" y="355.8467">iTunes Store Protocol</text></g><!--MD5=[b313425349e1e71fbdc3244b7ba8d655]
link wb to iTW--><g id="link_wb_iTW"><path d="M357.06,248.19 C439.585,247.175 584.68,245.3975 709.9538,243.8637 C741.2722,243.4803 771.3518,243.1121 798.9052,242.7749 C812.6819,242.6062 825.8271,242.4454 838.1798,242.2942 C841.268,242.2564 844.3066,242.2192 847.2932,242.1826 " fill="none" id="wb-iTW" style="stroke:#181818;stroke-width:1.0;"/><text fill="#000000" font-family="sans-serif" font-size="13" lengthAdjust="spacing" textLength="60" x="525" y="225.4951">«protocol»</text><text fill="#000000" font-family="sans-serif" font-size="13" lengthAdjust="spacing" textLength="32" x="539" y="241.8467">HTTP</text></g><!--MD5=[be83e7c0c87979d0240f77e6b346c479]
link MDOS to iTS--><g id="link_MDOS_iTS"><path d="M593.2,513.99 C641.38,502.315 728.0925,481.3075 803.2475,463.1 C840.825,453.9963 875.5131,445.5925 901.0506,439.4053 C904.2428,438.6319 907.292,437.8931 910.186,437.192 " fill="none" id="MDOS-iTS" style="stroke:#181818;stroke-width:1.0;"/><text fill="#000000" font-family="sans-serif" font-size="13" lengthAdjust="spacing" textLength="111" x="682" y="445.4951">«wireless protocol»</text><text fill="#000000" font-family="sans-serif" font-size="13" lengthAdjust="spacing" textLength="125" x="675" y="461.8467">iTunes Store Protocol</text></g><!--MD5=[68380201c80fed798816b67e06b3a606]
@startuml
left to right direction
skinparam backgroundcolor transparent
node "Apple Web Server" <<device>>#PaleTurquoise {
    node iTunes as iTW <<website>>#LightSalmon {
        artifact iTuneseSetup.exe <<application>>
    }
    node "iTunes Store" as iTS <<website>>#LightSalmon {
        rectangle "Media Library"
    }
}
'iTW -down- iTS
node "Home Computer" as HC <<device>>#LightSalmon {
    node " " as wb <<web browser>>#LightSalmon
    rectangle iTunes as iT <<application>>#red
    rectangle "Media Library" as ML1 #LimeGreen
}
node "iPhone/iPad/etc." as MD <<mobile device>>#LightSalmon {
    node "iOS" as MDOS <<OS>>#LightSalmon
    rectangle "Media Library" as ML2 #LimeGreen
}
note as N1
Media libraries are
synchronized
between devices by
iTunes
end note
N1 .. ML1
N1 .. ML2
' HC *- - ML1
' HC *-l- wb
HC - - MD : USB
'iT .u.> HC
iT - - iTS : <<protocol>>\niTunes Store Protocol
' MD *- - MDOS
' MD *- - ML2
wb - - iTW : <<protocol>>\nHTTP
MDOS - - iTS : <<wireless protocol>>\niTunes Store Protocol
@enduml

@startuml
left to right direction
skinparam backgroundcolor transparent
node "Apple Web Server" <<device>>#PaleTurquoise {
    node iTunes as iTW <<website>>#LightSalmon {
        artifact iTuneseSetup.exe <<application>>
    }
    node "iTunes Store" as iTS <<website>>#LightSalmon {
        rectangle "Media Library"
    }
}
node "Home Computer" as HC <<device>>#LightSalmon {
    node " " as wb <<web browser>>#LightSalmon
    rectangle iTunes as iT <<application>>#red
    rectangle "Media Library" as ML1 #LimeGreen
}
node "iPhone/iPad/etc." as MD <<mobile device>>#LightSalmon {
    node "iOS" as MDOS <<OS>>#LightSalmon
    rectangle "Media Library" as ML2 #LimeGreen
}
note as N1
Media libraries are
synchronized
between devices by
iTunes
end note
N1 .. ML1
N1 .. ML2
HC - - MD : USB
iT - - iTS : <<protocol>>\niTunes Store Protocol
wb - - iTW : <<protocol>>\nHTTP
MDOS - - iTS : <<wireless protocol>>\niTunes Store Protocol
@enduml

PlantUML version 1.2022.5(Sat Apr 30 06:55:52 EDT 2022)
(GPL source distribution)
Java Runtime: Java(TM) SE Runtime Environment
JVM: Java HotSpot(TM) 64-Bit Server VM
Default Encoding: UTF-8
Language: en
Country: CA
--></g></svg>